<?xml version="1.0" encoding="UTF-8"?>
<svg id="Layer_2" data-name="Layer 2" xmlns="http://www.w3.org/2000/svg" viewBox="0 0 373.33 373.33">
  <defs>
    <style>
      .cls-1 {
        fill: #fff;
      }
    </style>
  </defs>
  <g id="Layer_1-2" data-name="Layer 1">
    <g>
      <path class="cls-1" d="M186.93,148.35h-.52c-21.25,0-38.87,17.62-38.87,38.87s17.62,39.39,38.87,39.39h.52c21.25,0,38.87-17.62,38.87-39.39s-17.62-38.87-38.87-38.87Z"/>
      <path class="cls-1" d="M236.17,97.56h-99c-22.29,0-40.43,18.14-40.43,40.43v98.48c0,22.29,18.14,40.43,40.43,40.43h99c22.29,0,40.43-18.14,40.43-40.43v-98.48c0-22.29-18.14-40.43-40.43-40.43Zm-49.24,148.76h-.52c-32.14,0-58.57-26.43-58.57-59.09s26.43-59.09,58.57-59.09h.52c32.14,0,59.09,26.95,59.09,59.09s-26.95,59.09-59.09,59.09Zm58.05-104.7c-7.26,0-12.44-5.7-12.44-12.44s5.18-12.44,12.44-12.44c6.74,0,12.44,5.7,12.44,12.44s-5.7,12.44-12.44,12.44Z"/>
      <path class="cls-1" d="M186.67,0C83.57,0,0,83.57,0,186.67s83.57,186.67,186.67,186.67,186.67-83.57,186.67-186.67S289.76,0,186.67,0Zm108.59,236.99c0,32.14-26.43,58.57-58.57,58.57h-100.04c-32.14,0-58.57-26.43-58.57-58.57v-99.52c0-32.14,26.43-58.57,58.57-58.57h100.04c32.14,0,58.57,26.43,58.57,58.57v99.52Z"/>
    </g>
  </g>
</svg>