<?xml version="1.0" encoding="UTF-8"?>
<svg id="Layer_2" data-name="Layer 2" xmlns="http://www.w3.org/2000/svg" viewBox="0 0 373.33 373.33">
  <defs>
    <style>
      .cls-1 {
        fill: #fff;
      }
    </style>
  </defs>
  <g id="Layer_1-2" data-name="Layer 1">
    <path class="cls-1" d="M186.67,0C83.57,0,0,83.57,0,186.67s83.57,186.67,186.67,186.67,186.67-83.57,186.67-186.67S289.76,0,186.67,0Zm91.52,139.52v26.63c-18.06,1.35-36.11-4.51-49.65-16.7v74.03c0,36.11-29.34,65.45-65.9,65.45-13.99,0-27.08-4.51-37.92-11.74-17.15-11.74-28.44-31.6-28.44-53.71,0-36.56,29.79-65.9,66.35-65.9,3.16,0,5.87,.45,9.03,.9v36.11c-3.16-.9-5.87-1.35-9.03-1.35-17.15,0-30.69,13.54-30.69,30.24,0,11.28,6.77,21.67,16.25,26.63,4.51,2.26,9.03,3.61,14.44,3.61,16.7,0,30.24-13.54,30.24-30.24V81.3h35.66c0,3.16,.45,5.87,.9,9.03,2.26,13.54,11.28,27.08,23.02,34.3,7.67,4.97,16.7,7.67,25.73,5.87v9.03Z"/>
  </g>
</svg>